# xmcd CD database file
#
# Track frame offsets:
#	150
#	16486
#	32807
#	48851
#	61964
#	75569
#	90046
#	104347
#	119600
#	131199
#	145776
#	168817
#	216069
#	226485
#
# Disc length: 3328 seconds
#
# Revision: 12
# Processed by: cddbd v1.5.2PL0 Copyright (c) Steve Scherf et al.
# Submitted via: CDex 1.84
#
DISCID=b20cfe0e
DTITLE=Eric Clapton - Eric Clapton (Deluxe Edition CD 1)
DYEAR=2006
DGENRE=Rock
TTITLE0=Eric Clapton - Slunky
TTITLE1=Eric Clapton - Bad Boy
TTITLE2=Eric Clapton - Lonesome And A Long Way From Home
TTITLE3=Eric Clapton - After Midnight
TTITLE4=Eric Clapton - Easy Now
TTITLE5=Eric Clapton - Blues Power
TTITLE6=Eric Clapton - Bottle Of Red Wine
TTITLE7=Eric Clapton - Lovin' You Lovin' Me
TTITLE8=Eric Clapton - I've Told You For The Last Time
TTITLE9=Eric Clapton - Don't Know Why
TTITLE10=Eric Clapton - Let It Rain
TTITLE11=Eric Clapton - Blues In "A"
TTITLE12=Eric Clapton - King Curtis With Delaney Bramlett, Eric Clapton and Friends - Teasin'
TTITLE13=Eric Clapton - She Rides ("Let It Rain" Original Version)
EXTD=YEAR: 2006
EXTT0=
EXTT1=
EXTT2=
EXTT3=
EXTT4=
EXTT5=
EXTT6=
EXTT7=
EXTT8=
EXTT9=
EXTT10=
EXTT11=
EXTT12=
EXTT13=
PLAYORDER=
